<svg width="80" height="81" viewBox="0 0 80 81" fill="none" xmlns="http://www.w3.org/2000/svg">
<g id="folder icon">
<g id="Subtract" filter="url(#filter0_ii_1_3009)">
<path fill-rule="evenodd" clip-rule="evenodd" d="M14.1333 7.16666C13.5074 7.16666 13 7.67406 13 8.29999V72.7C13 73.3259 13.5074 73.8333 14.1333 73.8333H65.8667C66.4926 73.8333 67 73.3259 67 72.7L67 23.8333L50.3333 7.16666H14.1333Z" fill="#32BD7A"/>
</g>
<g id="Vector" filter="url(#filter1_dd_1_3009)">
<path d="M32.5166 57.1667L39.9812 46.4525L47.4846 57.1667H51.0416L41.7071 44.1767L50.3696 32.1667H46.8125L39.9812 41.9004L33.1833 32.1667H29.6275L38.2204 44.1767L28.9583 57.1667H32.5166Z" fill="white"/>
</g>
<path id="Line 1" d="M65.4363 22.2708H51.8958L67 37.375V23.8333L65.4363 22.2708Z" fill="url(#paint0_linear_1_3009)"/>
<path id="Rectangle 1" d="M51.4667 23.8333L67 23.8333L50.3333 7.16666L50.3333 22.7C50.3333 23.3259 50.8407 23.8333 51.4667 23.8333Z" fill="#EBFFEC"/>
</g>
<defs>
<filter id="filter0_ii_1_3009" x="13" y="7.09582" width="54" height="66.8083" filterUnits="userSpaceOnUse" color-interpolation-filters="sRGB">
<feFlood flood-opacity="0" result="BackgroundImageFix"/>
<feBlend mode="normal" in="SourceGraphic" in2="BackgroundImageFix" result="shape"/>
<feColorMatrix in="SourceAlpha" type="matrix" values="0 0 0 0 0 0 0 0 0 0 0 0 0 0 0 0 0 0 127 0" result="hardAlpha"/>
<feOffset dy="-0.141667"/>
<feGaussianBlur stdDeviation="0.0354167"/>
<feComposite in2="hardAlpha" operator="arithmetic" k2="-1" k3="1"/>
<feColorMatrix type="matrix" values="0 0 0 0 0 0 0 0 0 0 0 0 0 0 0 0 0 0 0.3 0"/>
<feBlend mode="normal" in2="shape" result="effect1_innerShadow_1_3009"/>
<feColorMatrix in="SourceAlpha" type="matrix" values="0 0 0 0 0 0 0 0 0 0 0 0 0 0 0 0 0 0 127 0" result="hardAlpha"/>
<feOffset dy="0.141667"/>
<feGaussianBlur stdDeviation="0.0354167"/>
<feComposite in2="hardAlpha" operator="arithmetic" k2="-1" k3="1"/>
<feColorMatrix type="matrix" values="0 0 0 0 1 0 0 0 0 1 0 0 0 0 1 0 0 0 0.3 0"/>
<feBlend mode="normal" in2="effect1_innerShadow_1_3009" result="effect2_innerShadow_1_3009"/>
</filter>
<filter id="filter1_dd_1_3009" x="27.9583" y="31.1667" width="31.0833" height="36" filterUnits="userSpaceOnUse" color-interpolation-filters="sRGB">
<feFlood flood-opacity="0" result="BackgroundImageFix"/>
<feColorMatrix in="SourceAlpha" type="matrix" values="0 0 0 0 0 0 0 0 0 0 0 0 0 0 0 0 0 0 127 0" result="hardAlpha"/>
<feOffset dx="4" dy="6"/>
<feGaussianBlur stdDeviation="2"/>
<feColorMatrix type="matrix" values="0 0 0 0 0 0 0 0 0 0 0 0 0 0 0 0 0 0 0.1 0"/>
<feBlend mode="normal" in2="BackgroundImageFix" result="effect1_dropShadow_1_3009"/>
<feColorMatrix in="SourceAlpha" type="matrix" values="0 0 0 0 0 0 0 0 0 0 0 0 0 0 0 0 0 0 127 0" result="hardAlpha"/>
<feOffset/>
<feGaussianBlur stdDeviation="0.5"/>
<feColorMatrix type="matrix" values="0 0 0 0 0 0 0 0 0 0 0 0 0 0 0 0 0 0 0.4 0"/>
<feBlend mode="normal" in2="effect1_dropShadow_1_3009" result="effect2_dropShadow_1_3009"/>
<feBlend mode="normal" in="SourceGraphic" in2="effect2_dropShadow_1_3009" result="shape"/>
</filter>
<linearGradient id="paint0_linear_1_3009" x1="55.2812" y1="18.8854" x2="70.3854" y2="33.9896" gradientUnits="userSpaceOnUse">
<stop stop-opacity="0.2"/>
<stop offset="1" stop-opacity="0"/>
</linearGradient>
</defs>
</svg>
